<svg width="375" height="452" viewBox="0 0 375 452" fill="none" xmlns="http://www.w3.org/2000/svg">
<g opacity="0.15" clip-path="url(#clip0_1_27)">
<g opacity="0.9">
<path opacity="0.9" d="M147.01 434.29L149.17 435.046C154.298 436.773 160.64 438.744 165.553 440.282C170.465 441.82 177.455 443.332 182.557 444.546C115.891 428.352 59.0222 391.726 13.5165 335.965L26.3099 351.754C27.9023 353.562 29.3328 355.155 30.6553 356.612C35.3786 361.524 40.9926 367.246 46.8495 372.806C50.3852 376.045 54.7846 379.932 60.8574 385.303C63.9883 387.813 67.6589 390.701 71.4106 393.4C94.4283 410.727 119.911 424.51 147.01 434.29Z" fill="#736F6E"/>
<path opacity="0.9" d="M-24.5664 268.003C28.4425 393.13 161.154 441.011 208.009 448.838H208.684C211.167 449.135 214.271 449.459 216.646 449.702L221.585 450.134H221.936C194.271 447.57 4.07027 391.457 -38.7363 218.773C-38.2505 221.337 -37.7916 223.847 -37.3328 226.168C-34.1479 238.206 -29.2357 253.941 -25.1601 265.952L-24.5664 268.003Z" fill="#736F6E"/>
<path opacity="0.9" d="M238.508 451.186H241.828H249.763C227.82 450.808 -86.2662 331.781 -35.4975 89.948C-37.2249 96.7495 -38.9252 105.926 -40.3827 112.809C-41.7862 121.581 -42.9468 133.429 -43.9184 142.282C-49.1276 359.311 209.763 448.379 238.508 451.186Z" fill="#736F6E"/>
<path opacity="0.9" d="M-7.29204 20.0703C-134.875 266.033 222.503 439.715 265.31 450.511H266.201L268.063 450.376H268.954L275.971 449.702H276.808C226.174 411.214 164.582 390.323 115.784 348.866C91.8972 328.623 35.9733 281.174 3.2611 217.747C-62.1364 90.8928 -3.9182 9.92192 24.6375 -24.9225L21.6955 -21.4678L16.8103 -15.9888C9.25299 -5.59751 -0.247662 8.65336 -7.04922 19.6384L-7.29204 20.0703Z" fill="#736F6E"/>
<path opacity="0.9" d="M178.104 -119.2H178.617L177.241 -118.876C174.083 -118.174 169.872 -117.04 166.741 -116.177C160.264 -114.368 151.708 -111.723 145.419 -109.348C141.587 -107.891 136.431 -105.974 132.653 -104.355C128.118 -102.412 122.154 -99.6316 117.7 -97.5534C113.247 -95.4751 107.147 -92.1553 102.801 -89.6992C97.6733 -86.7033 91.3577 -82.8167 85.7167 -79.2C27.9575 -39.4703 -17.6561 24.3078 -11.4483 96.2369C3.45031 265.844 195.513 382.172 267.82 425.95C292.84 441.119 292.84 441.119 294.298 447.057H294.783C298.751 446.328 303.744 445.275 307.685 444.358H308.09C309.52 443.872 310.546 441.848 311.49 440.714C308.225 434.398 301.774 429.918 266.983 407.057C177.538 348.461 87.525 281.066 34.8669 185.548C-83.7014 -30.0237 146.283 -141.548 244.797 -115.286C225.904 -122.924 202.693 -123.761 178.104 -119.2Z" fill="#736F6E"/>
<path opacity="0.9" d="M278.103 382.685C332.515 421.146 345.578 430.296 328.278 438.798L328.844 438.636L337.454 435.937L343.446 433.804C367.737 422.495 346.577 406.814 295.835 369.487C239.695 328.164 169.818 276.721 110.52 201.472C-64.4851 -20.6582 122.315 -130.509 245.013 -115.448C105.581 -145.677 -194.443 48.7879 278.103 382.685Z" fill="#736F6E"/>
<path opacity="0.9" d="M310.113 339.446C373.567 388.029 397.373 406.355 365.875 424.493L366.604 424.169C372.002 421.632 378.453 418.177 383.5 415.586C408.088 401.227 398.264 384.547 383.986 368.677C324.283 302.281 244.986 258.286 183.826 193.564C-13.0145 -14.8552 119.049 -118.444 245.013 -115.556C116.674 -127.27 -112.744 15.2659 310.113 339.446Z" fill="#736F6E"/>
<path opacity="0.9" d="M359.155 299.177C419.64 347.759 441.178 373.697 408.925 399.878C414.323 395.991 421.448 390.512 426.927 386.382C429.626 384.088 432.595 381.632 435.375 379.203C460.476 356.207 446.387 343.792 277.563 195.102C32.842 -20.4423 143.124 -96.5549 222.881 -112.452C150.52 -99.065 -51.1517 -29.619 359.155 299.177Z" fill="#736F6E"/>
<path opacity="0.9" d="M347.873 204.279C448.196 285.007 485.874 321.956 453.135 362.064L453.783 361.389C458.911 355.991 465.092 348.569 469.977 343.009L470.274 342.631C498.829 305.169 471.542 265.79 353.757 174.266C46.4992 -64.4636 209.278 -109.132 245.013 -115.556C218.967 -112.263 0.615555 -75.2866 347.873 204.279Z" fill="#736F6E"/>
<path opacity="0.9" d="M368.628 139.691C482.149 224.495 513.404 267.841 492.163 311.215C493.026 309.784 493.863 308.516 494.673 306.977L495.482 305.601C496.049 304.602 496.589 303.657 497.102 302.713L503.606 290.243C504.389 288.624 505.172 287.031 505.9 285.493C531.271 227.383 435.24 157.478 371.489 111.082C163.826 -40.064 187.955 -95.5561 245.012 -115.637C196.43 -102.87 111.275 -52.6145 368.628 139.691Z" fill="#736F6E"/>
<path opacity="0.9" d="M374.188 73.8617C473.297 143.686 532.675 190.379 520.314 248.651C520.908 246.681 521.501 244.71 522.068 242.767C524.065 235.507 526.036 227.328 527.628 220.824C536.13 162.741 476.346 118.477 377.697 51.0819C312.623 6.57489 191.464 -76.2853 245.013 -115.556C161.1 -76.2583 321.476 36.7231 374.188 73.8617Z" fill="#736F6E"/>
<path opacity="0.9" d="M381.449 22.4992C493.135 94.9681 531.083 127.761 533.08 177.72C533.08 176.749 533.08 175.75 533.269 174.778L533.62 162.579L533.35 150.784C533.35 149.408 533.215 148.085 533.161 146.735C528.87 94.4013 459.073 51.2169 370.842 -3.30354C308.764 -41.6567 238.427 -85.1381 245.013 -115.556C215.971 -84.8142 315.539 -20.2265 381.449 22.4992Z" fill="#736F6E"/>
<path opacity="0.9" d="M374.242 -23.7352C477.102 34.6718 515.833 63.0116 528.086 105.818C526.548 98.4228 524.038 89.0302 521.933 81.0951C521.447 79.4487 520.988 77.8293 520.475 76.1828C503.768 32.7015 447.601 1.47374 350.436 -49.7268C281.611 -85.9208 258.966 -100.091 244.958 -115.556C253.028 -92.5604 303.878 -63.6808 374.242 -23.7352Z" fill="#736F6E"/>
<path opacity="0.9" d="M505.846 38.4776C505.415 37.614 505.01 36.7503 504.578 35.7786L498.721 24.2268L494.78 17.3173L492.567 13.5386C479.288 -7.05496 455.321 -22.4124 420.989 -40.442C364.309 -70.1313 303.446 -90.1041 245.012 -115.718C263.258 -104.112 296.753 -88.7276 339.154 -69.2676C451.623 -17.4193 486.44 4.9287 505.846 38.4776Z" fill="#736F6E"/>
</g>
<g filter="url(#filter0_f_1_27)">
<ellipse cx="-35" cy="361.5" rx="347" ry="343.5" fill="#0F111E"/>
</g>
</g>
<defs>
<filter id="filter0_f_1_27" x="-522" y="-122" width="974" height="967" filterUnits="userSpaceOnUse" color-interpolation-filters="sRGB">
<feFlood flood-opacity="0" result="BackgroundImageFix"/>
<feBlend mode="normal" in="SourceGraphic" in2="BackgroundImageFix" result="shape"/>
<feGaussianBlur stdDeviation="70" result="effect1_foregroundBlur_1_27"/>
</filter>
<clipPath id="clip0_1_27">
<rect width="577.619" height="578.24" fill="white" transform="translate(-44 -127)"/>
</clipPath>
</defs>
</svg>
